<svg width="410" height="404" viewBox="0 0 410 404" fill="none" xmlns="http://www.w3.org/2000/svg">
<path d="M255.113 10.783C252.254 4.09073 244.744 0 237.392 0H172.23C164.878 0 157.368 4.09073 154.509 10.783L3.24699 352.196C0.388158 358.888 1.6298 366.624 6.32187 372.048C10.4134 376.807 16.4201 379.5 22.6868 379.5C22.9367 379.5 23.1865 379.497 23.4364 379.492L134.498 377.041L134.5 377.025L204.779 72.4934C204.991 71.7637 205.604 71.25 206.363 71.25H203.169C203.928 71.25 204.541 71.7637 204.753 72.4934L275.031 377.025L275.033 377.041L386.095 379.492C386.345 379.497 386.595 379.5 386.845 379.5C393.111 379.5 399.118 376.807 403.209 372.048C407.901 366.624 409.143 358.888 406.284 352.196L255.113 10.783Z" fill="url(#paint0_linear)"/>
<path d="M292.965 92.0893C293.637 88.8605 291.036 85.7536 287.742 85.7536H208.643C205.749 85.7536 203.403 88.0284 203.403 90.8938C203.403 91.1662 203.428 91.4386 203.478 91.7079L219.951 188.397C220.621 192.017 224.894 193.795 227.94 191.784C229.346 190.867 230.238 189.321 230.473 187.63L292.965 92.0893Z" fill="url(#paint1_linear)"/>
<path d="M187.861 142.109C188.102 143.604 187.838 145.132 187.117 146.463C186.396 147.793 185.258 148.858 183.862 149.511L79.4121 199.862C76.7977 201.114 74.6551 203.259 73.4019 205.874L32.1297 291.211C30.8904 293.795 30.8904 296.793 32.1297 299.377C33.369 301.961 35.5157 304.107 38.0999 305.346L130.91 349.761C132.629 350.595 134.533 351.032 136.469 351.032H202.778C206.846 351.032 209.999 347.939 209.999 343.962C209.999 343.475 209.957 342.989 209.874 342.51L187.861 142.109Z" fill="url(#paint2_linear)"/>
<defs>
<linearGradient id="paint0_linear" x1="205.5" y1="0" x2="205.5" y2="379.5" gradientUnits="userSpaceOnUse">
<stop stop-color="#41D1FF"/>
<stop offset="1" stop-color="#BD34FE"/>
</linearGradient>
<linearGradient id="paint1_linear" x1="241.207" y1="85.7536" x2="241.207" y2="192.35" gradientUnits="userSpaceOnUse">
<stop stop-color="#FFEA83"/>
<stop offset="0.0833333" stop-color="#FFDD35"/>
<stop offset="1" stop-color="#FFA800"/>
</linearGradient>
<linearGradient id="paint2_linear" x1="120.309" y1="166.878" x2="159.535" y2="346.746" gradientUnits="userSpaceOnUse">
<stop stop-color="#FFEA83"/>
<stop offset="0.0833333" stop-color="#FFDD35"/>
<stop offset="1" stop-color="#FFA800"/>
</linearGradient>
</defs>
</svg>
